<svg xmlns="http://www.w3.org/2000/svg" width="30" height="30" fill="none"><path fill="#3DD598" fill-rule="evenodd" d="m29.515 13.416-1.131-1.681a1.312 1.312 0 0 1-.13-.614l.13-2.037A2.869 2.869 0 0 0 26.8 6.336l-1.81-.905a.884.884 0 0 1-.421-.42l-.905-1.81a2.9 2.9 0 0 0-2.748-1.585l-2.037.13c-.194 0-.42-.033-.582-.162l-1.68-1.1a2.83 2.83 0 0 0-3.169 0l-1.68 1.132a1.54 1.54 0 0 1-.647.13l-2.037-.13A2.869 2.869 0 0 0 6.336 3.2l-.905 1.81a.884.884 0 0 1-.42.421l-1.81.905a2.9 2.9 0 0 0-1.585 2.748l.13 2.037c0 .194-.033.42-.162.582l-1.1 1.68c-.646.97-.646 2.231 0 3.169l1.132 1.68c.097.227.13.421.13.647l-.13 2.037A2.869 2.869 0 0 0 3.2 23.664l1.81.905c.195.097.324.259.421.42l.905 1.81a2.9 2.9 0 0 0 2.748 1.585l2.037-.13c.194 0 .42.033.582.162l1.68 1.1a2.85 2.85 0 0 0 1.585.484c.55 0 1.099-.162 1.584-.485l1.68-1.131a1.21 1.21 0 0 1 .583-.162l2.036.13a2.869 2.869 0 0 0 2.748-1.585l.905-1.81a.884.884 0 0 1 .42-.42l1.81-.905a2.9 2.9 0 0 0 1.585-2.748l-.065-2.005c0-.194.033-.42.162-.582l1.1-1.713c.646-.97.646-2.23 0-3.168Z" clip-rule="evenodd"/><path fill="#fff" stroke="#fff" stroke-width="2" d="M19.468 10.28a.834.834 0 0 1 1.153-.09.78.78 0 0 1 .093 1.12l-6.954 7.955a.834.834 0 0 1-1.167.08L8.91 16.163a.78.78 0 0 1-.068-1.123.835.835 0 0 1 1.155-.066l3.057 2.641 6.413-7.335Z"/></svg>